<svg width="16" height="16" viewBox="0 0 16 16" fill="none" xmlns="http://www.w3.org/2000/svg">
<path d="M14.7836 3.72747L12.2719 1.2158C11.9441 0.907892 11.5146 0.731216 11.065 0.719385C10.6154 0.707554 10.1772 0.861393 9.8336 1.15164L1.58361 9.40164C1.28731 9.70044 1.10282 10.0921 1.06111 10.5108L0.666939 14.3333C0.65459 14.4676 0.672012 14.6029 0.717961 14.7297C0.763911 14.8564 0.837257 14.9715 0.932772 15.0666C1.01843 15.1516 1.12001 15.2188 1.23169 15.2644C1.34338 15.31 1.46297 15.3332 1.58361 15.3325H1.66611L5.48861 14.9841C5.90733 14.9424 6.29897 14.7579 6.59777 14.4616L14.8478 6.21164C15.168 5.87336 15.341 5.42194 15.329 4.95629C15.317 4.49065 15.1208 4.04877 14.7836 3.72747ZM5.3236 13.1508L2.5736 13.4075L2.82111 10.6575L8.00027 5.54247L10.4753 8.01747L5.3236 13.1508ZM11.6669 6.78914L9.21027 4.33247L10.9978 2.49914L13.5003 5.00164L11.6669 6.78914Z" fill="#393E93"/>
</svg>
