<svg width="12" height="12" viewBox="0 0 12 12" fill="none" xmlns="http://www.w3.org/2000/svg">
<path fill-rule="evenodd" clip-rule="evenodd" d="M6 7.48679L2.1939 11.2929C1.80337 11.6834 1.17021 11.6834 0.779686 11.2929L0.707107 11.2203C0.316583 10.8298 0.316583 10.1966 0.707107 9.8061L4.51321 6L0.707106 2.1939C0.316582 1.80337 0.316583 1.17021 0.707107 0.779685L0.779685 0.707107C1.17021 0.316583 1.80337 0.316583 2.1939 0.707107L6 4.51321L9.8061 0.707107C10.1966 0.316582 10.8298 0.316583 11.2203 0.707107L11.2929 0.779685C11.6834 1.17021 11.6834 1.80337 11.2929 2.1939L7.48679 6L11.2929 9.8061C11.6834 10.1966 11.6834 10.8298 11.2929 11.2203L11.2203 11.2929C10.8298 11.6834 10.1966 11.6834 9.8061 11.2929L6 7.48679Z" fill="#CA576B"/>
</svg>
