<svg width="35" height="35" viewBox="0 0 35 35" fill="none" xmlns="http://www.w3.org/2000/svg">
<path d="M3.81048 18.8547H1.12903C0.505524 18.8547 0 18.3431 0 17.7119C0 17.0806 0.505524 16.569 1.12903 16.569H3.81048C4.43399 16.569 4.93952 17.0806 4.93952 17.7119C4.93952 18.3431 4.43399 18.8547 3.81048 18.8547ZM6.72056 30.2384L8.61663 28.3191C9.05759 27.8729 9.05759 27.1492 8.61663 26.7029C8.17575 26.2566 7.46086 26.2566 7.01997 26.7029L5.1239 28.6222C4.41035 29.3444 4.92569 30.5731 5.9222 30.5731C6.21116 30.5731 6.50012 30.4616 6.72056 30.2384ZM18.6315 3.85714V1.14286C18.6315 0.511643 18.126 0 17.5025 0C16.879 0 16.3734 0.511643 16.3734 1.14286V3.85714C16.3734 4.48836 16.879 5 17.5025 5C18.126 5 18.6315 4.48836 18.6315 3.85714ZM8.62009 7.10593L6.72402 5.18664C6.28313 4.74036 5.56825 4.74036 5.12736 5.18664C4.6864 5.63293 4.6864 6.35657 5.12736 6.80286L7.02343 8.72214C7.24387 8.94529 7.53283 9.05693 7.82172 9.05693C8.81845 9.05693 9.3335 7.828 8.62009 7.10593ZM27.98 8.72564L29.8761 6.80636C30.3171 6.36007 30.3171 5.63643 29.8761 5.19014C29.4352 4.74386 28.7203 4.74386 28.2794 5.19014L26.3834 7.10943C25.6698 7.83164 26.1852 9.06036 27.1817 9.06036C27.4706 9.06043 27.7596 8.94879 27.98 8.72564ZM35 17.7167C35 17.0855 34.4945 16.5739 33.871 16.5739H31.1895C30.566 16.5739 30.0605 17.0855 30.0605 17.7167C30.0605 18.3479 30.566 18.8596 31.1895 18.8596H33.871C34.4945 18.8596 35 18.3479 35 17.7167ZM29.8726 28.6257L27.9766 26.7064C27.5357 26.2601 26.8208 26.2601 26.3799 26.7064C25.939 27.1527 25.939 27.8764 26.3799 28.3226L28.276 30.2419C28.4964 30.4651 28.7854 30.5767 29.0743 30.5767C30.071 30.5766 30.5861 29.3478 29.8726 28.6257ZM13.2686 29.9286V31.5714C13.2686 33.465 14.785 35 16.6557 35H18.2081C20.0788 35 21.5952 33.465 21.5952 31.5714V29.9286C21.5952 29.2974 21.0898 28.7857 20.4662 28.7857H14.3976C13.7741 28.7857 13.2686 29.2974 13.2686 29.9286ZM17.5025 15.8571C16.4909 15.8571 15.6678 16.6902 15.6678 17.7143C15.6678 18.7384 16.4909 19.5714 17.5025 19.5714C18.5141 19.5714 19.3371 18.7384 19.3371 17.7143C19.3371 16.6902 18.5141 15.8571 17.5025 15.8571ZM27.4521 17.7143C27.4521 21.2354 25.6546 24.4811 22.7238 26.3277C22.5447 26.4406 22.3375 26.5 22.1265 26.5C11.9285 26.5 12.5232 26.5696 12.1393 26.3277C9.20789 24.4812 7.41181 21.2378 7.41181 17.7143C7.41181 12.2522 11.782 7.57143 17.5089 7.57143C23.014 7.61429 27.4521 12.1359 27.4521 17.7143ZM23.0052 17.7695C23.0356 17.1132 22.519 16.5714 21.8774 16.5714C21.6276 16.5714 21.3978 16.4209 21.3049 16.1846C21.2905 16.1479 21.2756 16.1116 21.2602 16.0754C21.1604 15.8412 21.2175 15.5699 21.3944 15.3909C21.8481 14.9317 21.8349 14.1788 21.3549 13.7366C20.9052 13.3224 20.205 13.3624 19.7751 13.7976C19.6078 13.9669 19.354 14.0129 19.133 13.9156C19.0401 13.8746 18.6315 13.7541 18.6315 13.2858C18.6315 12.6125 18.0563 12.0752 17.3762 12.1499C16.7988 12.2132 16.3734 12.7301 16.3734 13.3181C16.3734 13.5594 16.2246 13.7721 16.0028 13.8606C15.9077 13.8986 15.5345 14.1061 15.2072 13.7748C14.7543 13.3164 14.0123 13.3289 13.5752 13.8122C13.1634 14.2676 13.2044 14.9799 13.6356 15.4164C13.8019 15.5846 13.8464 15.8395 13.751 16.0605C13.7093 16.1574 13.5907 16.5715 13.1275 16.5715C12.4858 16.5715 11.9692 17.1132 11.9997 17.7696C12.0283 18.3843 12.5514 18.8572 13.1594 18.8572C13.5199 18.8572 13.6407 19.1118 13.7503 19.3665C13.932 19.7886 13.5637 20.0851 13.6343 20.0137C12.9018 20.7552 13.4016 21.9887 14.4089 21.9887C14.9576 21.9887 15.2779 21.5824 15.2074 21.6539C15.3848 21.4742 15.653 21.4176 15.8835 21.5182C15.9192 21.5338 15.9551 21.5489 15.9913 21.5635C16.225 21.6576 16.3735 21.8904 16.3735 22.143C16.3735 22.8163 16.9487 23.3536 17.6288 23.2789C18.2062 23.2156 18.6316 22.6987 18.6316 22.1107C18.6316 21.8694 18.7805 21.6566 19.0022 21.5681C19.0973 21.5301 19.4705 21.3227 19.7978 21.654C20.2386 22.1002 20.955 22.1011 21.3966 21.6519C21.8397 21.2009 21.8133 20.4619 21.3691 20.0121C21.2016 19.8426 21.1593 19.5876 21.2538 19.3687C21.3022 19.2564 21.4146 18.8573 21.8456 18.8573C22.4536 18.8571 22.9767 18.3842 23.0052 17.7695Z" fill="#393E93"/>
</svg>
