<svg width="35" height="30" viewBox="0 0 35 30" fill="none" xmlns="http://www.w3.org/2000/svg">
<path d="M17.5 11.6847C20.7846 11.6847 23.4472 9.06902 23.4472 5.84237C23.4472 2.61572 20.7846 0 17.5 0C14.2154 0 11.5527 2.61572 11.5527 5.84237C11.5527 9.06902 14.2154 11.6847 17.5 11.6847Z" fill="#393E93"/>
<path d="M29.5312 11.6848C31.6077 11.6848 33.291 10.0311 33.291 7.9913C33.291 5.95147 31.6077 4.29785 29.5312 4.29785C27.4548 4.29785 25.7715 5.95147 25.7715 7.9913C25.7715 10.0311 27.4548 11.6848 29.5312 11.6848Z" fill="#393E93"/>
<path d="M5.46874 11.6848C7.5452 11.6848 9.2285 10.0311 9.2285 7.9913C9.2285 5.95147 7.5452 4.29785 5.46874 4.29785C3.39229 4.29785 1.70898 5.95147 1.70898 7.9913C1.70898 10.0311 3.39229 11.6848 5.46874 11.6848Z" fill="#393E93"/>
<path d="M9.17313 15.0013C7.69315 13.8102 6.35283 13.9678 4.64159 13.9678C2.08222 13.9678 0 16.0013 0 18.5V25.8339C0 26.9191 0.901659 27.8015 2.01045 27.8015C6.79737 27.8015 6.22069 27.8866 6.22069 27.5987C6.22069 22.4019 5.59411 18.5909 9.17313 15.0013Z" fill="#393E93"/>
<path d="M19.1277 13.9943C16.1388 13.7494 13.5408 13.9971 11.2999 15.8141C7.54989 18.7649 8.27156 22.7379 8.27156 27.5983C8.27156 28.8842 9.3366 29.95 10.6655 29.95C25.0949 29.95 25.6692 30.4072 26.5249 28.5458C26.8055 27.9163 26.7286 28.1164 26.7286 22.0944C26.7286 17.3113 22.5126 13.9943 19.1277 13.9943Z" fill="#393E93"/>
<path d="M30.3587 13.9677C28.6381 13.9677 27.3051 13.8116 25.8271 15.0012C29.3794 18.5641 28.7796 22.1151 28.7796 27.5985C28.7796 27.8882 28.3009 27.8013 32.9181 27.8013C34.0665 27.8013 35.0003 26.8874 35.0003 25.7639V18.4999C35.0003 16.0011 32.9181 13.9677 30.3587 13.9677Z" fill="#393E93"/>
</svg>
