<svg width="30" height="35" viewBox="0 0 30 35" fill="none" xmlns="http://www.w3.org/2000/svg">
<path d="M29.5196 28.7472C26.1311 22.2549 20.3845 11.2453 19.51 9.56977V2.05078H19.5861C20.1772 2.05078 20.6565 1.59168 20.6565 1.02539C20.6565 0.459102 20.1772 0 19.5861 0H10.4139C9.82277 0 9.34351 0.459102 9.34351 1.02539C9.34351 1.59168 9.82277 2.05078 10.4139 2.05078H10.49V9.56977C9.61546 11.2453 3.86882 22.2548 0.480354 28.7472C-0.223829 30.0963 -0.150185 31.6677 0.677594 32.9511C1.50594 34.234 2.94007 35 4.51392 35H25.4861C27.06 35 28.4941 34.234 29.3227 32.9507C30.1502 31.6677 30.2238 30.0963 29.5196 28.7472ZM17.1408 29.5814C17.1408 30.1476 16.6616 30.6067 16.0704 30.6067H13.7773C13.1862 30.6067 12.7069 30.1476 12.7069 29.5814C12.7069 29.0151 13.1862 28.556 13.7773 28.556H15V26.2135H13.7773C13.1862 26.2135 12.7069 25.7544 12.7069 25.1881C12.7069 24.6218 13.1862 24.1627 13.7773 24.1627H15V21.8203H13.7773C13.1862 21.8203 12.7069 21.3612 12.7069 20.7949C12.7069 20.2286 13.1862 19.7695 13.7773 19.7695H15V17.4271H13.7773C13.1862 17.4271 12.7069 16.968 12.7069 16.4017C12.7069 15.8354 13.1862 15.3763 13.7773 15.3763H16.0704C16.6616 15.3763 17.1408 15.8354 17.1408 16.4017V29.5814Z" fill="#393E93"/>
</svg>
