<svg width="35" height="35" viewBox="0 0 35 35" fill="none" xmlns="http://www.w3.org/2000/svg">
<path d="M23.3763 18.0605H35V15.6099C35 15.1826 34.7353 14.7998 34.3355 14.6494L18.5234 8.7139V6.15234H24.1438C24.7088 6.15234 25.1673 5.69296 25.1673 5.12695V1.70898C25.1673 1.14297 24.7088 0.683593 24.1438 0.683593H18.4639C18.3231 0.285742 17.9452 0 17.5 0C16.9351 0 16.4766 0.459375 16.4766 1.02539V8.71369L0.686328 14.6412L0.663838 14.6501C0.264688 14.7998 0 15.1826 0 15.6099V18.0605H11.6237C12.2542 18.0605 12.7651 18.5725 12.7651 19.2042C12.7651 19.8351 12.2541 20.3472 11.6237 20.3472H1.43685V33.9746C1.43685 34.5406 1.89533 35 2.46025 35H5.50519V25.3415C5.50519 23.6448 6.88201 22.2653 8.57534 22.2653H8.58354C10.2763 22.2653 11.6537 23.6448 11.6537 25.3415V35H14.3916V23.9538C14.3916 22.2578 15.7685 20.8776 17.4618 20.8776H17.47C19.1634 20.8776 20.5401 22.2578 20.5401 23.9538V35H23.3463V25.3415C23.3463 23.6448 24.7238 22.2653 26.4165 22.2653H26.4247C28.1181 22.2653 29.4948 23.6448 29.4948 25.3415V35H32.5397C33.1047 35 33.5632 34.5406 33.5632 33.9746V20.3472H23.3763C22.7444 20.3472 22.2349 19.8334 22.2349 19.2042C22.2349 18.5725 22.7459 18.0605 23.3763 18.0605ZM17.5 16.3064C15.8046 16.3064 14.4257 14.9263 14.4257 13.2303C14.4257 11.5336 15.8046 10.1541 17.5 10.1541C19.1954 10.1541 20.5743 11.5336 20.5743 13.2303C20.5743 14.9263 19.1954 16.3064 17.5 16.3064Z" fill="#393E93"/>
</svg>
