<svg width="35" height="35" viewBox="0 0 35 35" fill="none" xmlns="http://www.w3.org/2000/svg">
<g clip-path="url(#clip0)">
<path d="M8.72669 16.4746H8.64062V13.124L8.76244 13.0143C11.477 10.5716 13.0339 7.07602 13.0339 3.42392V3.22198C13.0339 1.44539 11.5884 0 9.81183 0C8.01486 0 6.58984 1.45845 6.58984 3.22198V12.2106L2.48835 15.9022C0.906992 17.3252 0 19.3616 0 21.4901C0 25.1952 2.92674 28.2295 6.58984 28.4024V31.2288C6.58984 32.1774 5.81807 32.9492 4.86944 32.9492C3.92082 32.9492 3.14904 32.1774 3.14904 31.2288V30.6797C3.14904 30.1134 2.68994 29.6543 2.12365 29.6543C1.55736 29.6543 1.09826 30.1134 1.09826 30.6797V31.2289C1.09826 33.3083 2.79002 35.0001 4.86944 35.0001C6.94887 35.0001 8.64062 33.3083 8.64062 31.2289V28.3944C11.7063 28.1708 14.1321 25.6049 14.1321 22.4831V21.8801C14.1321 18.8995 11.7073 16.4746 8.72669 16.4746ZM8.64062 3.22198C8.64062 2.57421 9.16528 2.05078 9.81183 2.05078C10.4576 2.05078 10.983 2.57619 10.983 3.22198V3.42392C10.983 5.88137 10.1449 8.25453 8.64056 10.1574V3.22198H8.64062ZM6.58984 26.3483C4.05829 26.178 2.05078 24.0641 2.05078 21.4892C2.05078 19.9421 2.71024 18.4614 3.86012 17.4266L6.58984 14.9697V26.3483ZM12.0814 22.4831C12.0814 24.4732 10.5737 26.1179 8.64062 26.3351V18.5254H8.72669C10.5765 18.5254 12.0814 20.0303 12.0814 21.8801V22.4831Z" fill="#393E93"/>
<path d="M20.7222 15.3034V8.30942L25.5692 6.37061C25.9585 6.21488 26.2137 5.83788 26.2137 5.41857V1.02538C26.2137 0.68509 26.0449 0.367082 25.7632 0.176291C25.4814 -0.0145002 25.1234 -0.0529865 24.8076 0.0733416L19.3161 2.26993C18.9268 2.42566 18.6715 2.80266 18.6715 3.22197V12.3027C18.3082 12.1604 17.9134 12.0813 17.5003 12.0813C15.7237 12.0813 14.2783 13.5267 14.2783 15.3033C14.2783 17.0799 15.7236 18.5254 17.5002 18.5254C19.2768 18.5254 20.7222 17.08 20.7222 15.3034Z" fill="#393E93"/>
<path d="M34.5498 14.4546C34.2679 14.2638 33.9099 14.2253 33.5941 14.3517L22.611 18.7449C22.2217 18.9007 21.9664 19.2777 21.9664 19.697V28.7777C21.6031 28.6354 21.2083 28.5564 20.7952 28.5564C19.0186 28.5564 17.5732 30.0018 17.5732 31.7783C17.5732 33.5549 19.0186 35.0003 20.7952 35.0003C22.5718 35.0003 24.0171 33.5549 24.0171 31.7783V24.7844L32.9495 21.2115V24.3845C32.5861 24.2421 32.1914 24.1631 31.7783 24.1631C30.0017 24.1631 28.5563 25.6085 28.5563 27.3851C28.5563 29.1617 30.0017 30.6071 31.7783 30.6071C33.5549 30.6071 35.0002 29.1617 35.0002 27.3851V15.3037C35.0002 14.9634 34.8315 14.6454 34.5498 14.4546Z" fill="#393E93"/>
</g>
<defs>
<clipPath id="clip0">
<rect width="35" height="35" fill="white"/>
</clipPath>
</defs>
</svg>
