<svg width="30" height="35" viewBox="0 0 30 35" fill="none" xmlns="http://www.w3.org/2000/svg">
<path d="M25.9091 33.1005H22.0138C21.1445 32.266 20.5064 31.2926 20.1287 30.2396C19.1612 30.3679 18.1756 30.434 17.1781 30.434C14.7284 30.434 12.35 30.0394 10.1377 29.2861C9.85098 30.7047 9.11236 32.0191 7.98575 33.1006H4.09091C3.48844 33.1006 3 33.5259 3 34.0504C3 34.575 3.48844 35.0003 4.09091 35.0003H25.9091C26.5116 35.0003 27 34.575 27 34.0504C27 33.5259 26.5116 33.1005 25.9091 33.1005Z" fill="#393E93"/>
<path d="M18.3471 11.8197L17.7005 12.4478C17.0998 13.0314 17.0998 13.981 17.7005 14.5646C18.0281 14.8829 18.4804 15.0403 18.9417 14.9957C19.4029 14.9513 19.8148 14.711 20.0719 14.3364C21.4753 12.2912 23.9056 11.2181 26.4146 11.5362L29.25 11.8956C29.1399 6.8822 25.9644 2.58913 21.4752 0.717773L20.7911 1.82558C19.6163 3.72781 19.176 5.98056 19.5514 8.16871C19.7799 9.50032 19.3297 10.8652 18.3471 11.8197Z" fill="#393E93"/>
<path d="M11.1094 15.3002C10.9081 15.1079 10.6405 15.002 10.356 15.002C10.0714 15.002 9.80378 15.1078 9.60262 15.3001L6 18.7421C7.96044 21.6897 11.2095 23.781 14.9839 24.2874L15.6697 22.0595C15.8277 21.5463 15.7509 21.0139 15.4537 20.5606C15.1563 20.1072 14.6884 19.8091 14.136 19.7212C13.2805 19.585 12.5273 19.1417 12.015 18.473C11.5027 17.8044 11.2881 16.9843 11.4108 16.164C11.4579 15.8484 11.3452 15.5255 11.1094 15.3002Z" fill="#393E93"/>
<path d="M27.0081 13.6558C25.3273 13.4479 23.6995 14.1492 22.7592 15.4858C22.133 16.3761 21.1295 16.9473 20.0059 17.0526C19.8809 17.0644 19.756 17.0702 19.6319 17.0702C18.6408 17.0703 17.6914 16.7004 16.9819 16.028C15.5184 14.641 15.5184 12.384 16.9819 10.9968L17.6312 10.3814C18.1154 9.92255 18.3372 9.2665 18.2246 8.62642C17.7614 5.99282 18.3046 3.28143 19.754 0.991809L20.183 0.314153C19.2481 0.108737 18.2744 0 17.2746 0C16.093 0 14.9485 0.152511 13.8609 0.436343L14.3188 1.12857C15.068 2.26111 15.3983 3.6197 15.2487 4.9541C15.0968 6.31073 14.4516 7.59 13.4322 8.5563C12.4126 9.52252 11.0629 10.134 9.63153 10.2781C9.41001 10.3003 9.18777 10.3114 8.96596 10.3114C7.77839 10.3114 6.60214 9.99504 5.59526 9.39671L4.86491 8.96274C4.56537 9.99358 4.40453 11.0783 4.40453 12.1982C4.40453 13.8142 4.73863 15.3575 5.34353 16.7703L8.48227 13.7955C9.10216 13.2079 9.92636 12.8843 10.8031 12.8843C11.6798 12.8843 12.504 13.208 13.124 13.7955C13.8507 14.4841 14.1977 15.4709 14.0523 16.4351C13.9665 17.0048 14.3839 17.5453 14.9829 17.6399C16.155 17.825 17.1892 18.4786 17.8202 19.4331C18.4512 20.3874 18.6208 21.5545 18.2856 22.635L17.7418 24.3874C20.7117 24.2865 23.4279 23.2268 25.5567 21.5264L27.127 23.0147C21.2108 27.8626 12.2301 27.625 6.61405 22.3021C0.998016 16.9793 0.747307 8.46749 5.86215 2.86021L7.43193 4.34796C6.72768 5.13993 6.12757 6.0177 5.65197 6.96218L6.76724 7.62492C8.40564 8.59861 10.5048 8.37346 11.8721 7.07761C13.2393 5.78175 13.4767 3.79214 12.4495 2.23929L11.7503 1.18224C10.7537 1.63301 9.82759 2.20179 8.99199 2.86927L6.61391 0.615481C6.18317 0.207228 5.48465 0.207228 5.05384 0.615481C-1.68461 7.00212 -1.68461 17.394 5.05384 23.7807C8.42307 26.974 12.8488 28.5707 17.2745 28.5707C21.7002 28.5707 26.1259 26.9741 29.4951 23.7807C29.9259 23.3724 29.9259 22.7104 29.4951 22.3021L27.1167 20.0478C28.6122 18.3662 29.6382 16.298 30 14.0257L27.0081 13.6558Z" fill="#393E93"/>
</svg>
