<svg width="15" height="15" viewBox="0 0 15 15" fill="none" xmlns="http://www.w3.org/2000/svg">
<path fill-rule="evenodd" clip-rule="evenodd" d="M7.5 9.35849L2.5656 14.2929C2.17507 14.6834 1.54191 14.6834 1.15138 14.2929L0.707107 13.8486C0.316583 13.4581 0.316583 12.8249 0.707107 12.4344L5.64151 7.5L0.707107 2.5656C0.316582 2.17507 0.316583 1.54191 0.707107 1.15138L1.15138 0.707106C1.54191 0.316582 2.17507 0.316583 2.5656 0.707107L7.5 5.64151L12.4344 0.707107C12.8249 0.316583 13.4581 0.316583 13.8486 0.707107L14.2929 1.15138C14.6834 1.54191 14.6834 2.17507 14.2929 2.5656L9.35849 7.5L14.2929 12.4344C14.6834 12.8249 14.6834 13.4581 14.2929 13.8486L13.8486 14.2929C13.4581 14.6834 12.8249 14.6834 12.4344 14.2929L7.5 9.35849Z" fill="white"/>
</svg>
