<svg width="11" height="11" viewBox="0 0 11 11" fill="none" xmlns="http://www.w3.org/2000/svg">
<path fill-rule="evenodd" clip-rule="evenodd" d="M5.5 6.86289L2.04434 10.3186C1.66799 10.6949 1.0578 10.6949 0.681447 10.3186C0.305094 9.9422 0.305094 9.33201 0.681447 8.95566L4.13711 5.5L0.681446 2.04434C0.305094 1.66799 0.305094 1.0578 0.681446 0.681446C1.0578 0.305094 1.66799 0.305094 2.04434 0.681446L5.5 4.13711L8.95566 0.681446C9.33201 0.305094 9.9422 0.305094 10.3186 0.681447C10.6949 1.0578 10.6949 1.66799 10.3186 2.04434L6.86289 5.5L10.3186 8.95566C10.6949 9.33201 10.6949 9.9422 10.3186 10.3186C9.9422 10.6949 9.33201 10.6949 8.95566 10.3186L5.5 6.86289Z" fill="#A9ACD3"/>
</svg>
