<svg width="14" height="14" viewBox="0 0 14 14" fill="none" xmlns="http://www.w3.org/2000/svg">
<path fill-rule="evenodd" clip-rule="evenodd" d="M7 8.73459L2.4417 13.2929C2.05117 13.6834 1.41801 13.6834 1.02748 13.2929L0.707108 12.9725C0.316583 12.582 0.316583 11.9488 0.707107 11.5583L5.26541 7L0.707107 2.4417C0.316583 2.05117 0.316583 1.41801 0.707107 1.02748L1.02748 0.707107C1.41801 0.316583 2.05117 0.316583 2.4417 0.707107L7 5.26541L11.5583 0.707107C11.9488 0.316583 12.582 0.316583 12.9725 0.707107L13.2929 1.02748C13.6834 1.41801 13.6834 2.05117 13.2929 2.4417L8.73459 7L13.2929 11.5583C13.6834 11.9488 13.6834 12.582 13.2929 12.9725L12.9725 13.2929C12.582 13.6834 11.9488 13.6834 11.5583 13.2929L7 8.73459Z" fill="#393E93"/>
</svg>
