<svg width="24" height="24" viewBox="0 0 24 24" fill="none" xmlns="http://www.w3.org/2000/svg">
<path d="M22.8105 9.96094H12.2256V14.3115H18.2725C18.0117 15.7178 17.2207 16.9072 16.0283 17.7041C15.0205 18.3779 13.7344 18.7764 12.2227 18.7764C9.2959 18.7764 6.82031 16.7988 5.93555 14.1416C5.71289 13.4678 5.58398 12.7471 5.58398 12.0059C5.58398 11.2646 5.71289 10.5439 5.93555 9.87012C6.82324 7.21582 9.29883 5.23828 12.2256 5.23828C13.875 5.23828 15.3545 5.80664 16.5205 6.91992L19.7432 3.69434C17.7949 1.87793 15.2549 0.764648 12.2256 0.764648C7.83398 0.764648 4.03418 3.28418 2.18555 6.95801C1.42383 8.47559 0.990234 10.1924 0.990234 12.0088C0.990234 13.8252 1.42383 15.5391 2.18555 17.0566C4.03418 20.7305 7.83398 23.25 12.2256 23.25C15.2607 23.25 17.8037 22.2422 19.6611 20.5254C21.7852 18.5684 23.0127 15.6855 23.0127 12.2607C23.0127 11.4639 22.9424 10.6992 22.8105 9.96094Z" fill="#393E93"/>
</svg>
