<svg width="494" height="65" viewBox="0 0 494 65" fill="none" xmlns="http://www.w3.org/2000/svg">
<mask id="mask0" mask-type="alpha" maskUnits="userSpaceOnUse" x="0" y="0" width="494" height="65">
<path d="M0 30C0 13.4315 13.4315 0 30 0H464C480.569 0 494 13.4315 494 30V35C494 51.5685 480.569 65 464 65H0V30Z" fill="url(#paint0_linear)"/>
</mask>
<g mask="url(#mask0)">
<g filter="url(#filter0_d)">
<path d="M500.295 -57.4579C485.631 -68.3762 466.135 -74.3892 445.398 -74.3892C424.66 -74.3892 405.163 -68.3762 390.5 -57.4579C365.471 -38.8224 361.139 -10.5246 377.499 11.4582L342.474 37.5369C334.272 43.6444 334.272 53.582 342.474 59.6895C346.448 62.6485 351.73 64.2775 357.35 64.2775C362.97 64.2775 368.253 62.6485 372.226 59.6895L407.095 33.7271C418.643 38.6189 431.751 41.2228 445.398 41.2228C466.135 41.2228 485.632 35.2104 500.295 24.2921C530.566 1.75306 530.566 -34.9194 500.295 -57.4579ZM486.552 14.0592C475.559 22.2439 460.944 26.7513 445.398 26.7513C429.852 26.7513 415.236 22.2439 404.244 14.0592C381.552 -2.83685 381.552 -30.3295 404.244 -47.225C415.237 -55.4102 429.852 -59.9176 445.398 -59.9176C460.944 -59.9176 475.56 -55.4102 486.552 -47.225C509.244 -30.329 509.244 -2.83685 486.552 14.0592Z" fill="#5B60B4"/>
</g>
<path d="M292.085 55.3197V172.023C292.09 172.816 291.976 173.607 291.744 174.38L290.725 176.906C288.194 181.222 282.448 184.003 276.113 183.978H40.9314C33.5616 183.962 27.1568 180.212 25.4116 174.89C25.0872 173.954 24.9351 172.989 24.9596 172.023V28.9513C24.9451 23.3346 31.0595 18.7725 38.616 18.7622H38.6682H108.606C113.491 18.7748 118.006 20.6935 120.5 23.8154L137.038 45.1194H278.485C286.029 45.1437 292.118 49.709 292.085 55.3169V55.3197Z" fill="#5B60B4"/>
</g>
<defs>
<filter id="filter0_d" x="286.322" y="-120.389" width="286.676" height="238.667" filterUnits="userSpaceOnUse" color-interpolation-filters="sRGB">
<feFlood flood-opacity="0" result="BackgroundImageFix"/>
<feColorMatrix in="SourceAlpha" type="matrix" values="0 0 0 0 0 0 0 0 0 0 0 0 0 0 0 0 0 0 127 0"/>
<feOffset dy="4"/>
<feGaussianBlur stdDeviation="25"/>
<feColorMatrix type="matrix" values="0 0 0 0 0.223529 0 0 0 0 0.243137 0 0 0 0 0.576471 0 0 0 0.3 0"/>
<feBlend mode="normal" in2="BackgroundImageFix" result="effect1_dropShadow"/>
<feBlend mode="normal" in="SourceGraphic" in2="effect1_dropShadow" result="shape"/>
</filter>
<linearGradient id="paint0_linear" x1="151.387" y1="13.0099" x2="154.233" y2="60.8239" gradientUnits="userSpaceOnUse">
<stop stop-color="#74ABFF"/>
<stop offset="1" stop-color="#8DBAFF"/>
</linearGradient>
</defs>
</svg>
