<svg width="8" height="8" viewBox="0 0 8 8" fill="none" xmlns="http://www.w3.org/2000/svg">
<path fill-rule="evenodd" clip-rule="evenodd" d="M4 4.9912L1.48679 7.5044C1.21308 7.77811 0.769308 7.77811 0.495598 7.5044C0.221887 7.23069 0.221886 6.78692 0.495597 6.51321L3.00881 4L0.495597 1.48679C0.221886 1.21308 0.221887 0.769308 0.495597 0.495597C0.769308 0.221887 1.21308 0.221887 1.48679 0.495597L4 3.00881L6.51321 0.495597C6.78692 0.221886 7.23069 0.221887 7.5044 0.495598C7.77811 0.769308 7.77811 1.21308 7.5044 1.48679L4.9912 4L7.5044 6.51321C7.77811 6.78692 7.77811 7.23069 7.5044 7.5044C7.23069 7.77811 6.78692 7.77811 6.51321 7.5044L4 4.9912Z" fill="#D80027"/>
</svg>
